PathFileType	4	(X/Y/Z)	Patient4_TMGait_0pt4_02_right_25.trc.trc
DataRate	CameraRate	NumFrames	NumMarkers	Units	OrigDataRate	OrigDataStartFrame	OrigNumFrames
70.707070707071	70.707070707071	4	33	mm	70.707070707071	18	       141
Frame#	Time	Sacral			L.Shoulder			Chest			R.Shoulder			Neck			R.ASIS			L.ASIS			R.Thigh.Superior			R.Thigh.Lateral			R.Thigh.Inferior			R.Patella			L.Thigh.Superior			L.Thigh.Lateral			L.Thigh.Inferior			L.Patella			L.Shank.Superior			L.Shank.Lateral			L.Shank.Inferior			R.Shank.Superior			R.Shank.Lateral			R.Shank.Inferior			R.Heel			R.Midfoot.Superior			R.Midfoot.Lateral			R.Toe			L.Heel			L.Midfoot.Lateral			L.Midfoot.Superior			L.Toe			L.Elbow			L.Wrist			R.Elbow			R.Wrist			
		X1	Y1	Z1	X2	Y2	Z2	X3	Y3	Z3	X4	Y4	Z4	X5	Y5	Z5	X6	Y6	Z6	X7	Y7	Z7	X8	Y8	Z8	X9	Y9	Z9	X10	Y10	Z10	X11	Y11	Z11	X12	Y12	Z12	X13	Y13	Z13	X14	Y14	Z14	X15	Y15	Z15	X16	Y16	Z16	X17	Y17	Z17	X18	Y18	Z18	X19	Y19	Z19	X20	Y20	Z20	X21	Y21	Z21	X22	Y22	Z22	X23	Y23	Z23	X24	Y24	Z24	X25	Y25	Z25	X26	Y26	Z26	X27	Y27	Z27	X28	Y28	Z28	X29	Y29	Z29	X30	Y30	Z30	X31	Y31	Z31	X32	Y32	Z32	X33	Y33	Z33	

18	33.130428571429	885.661514165293	1013.839861446125	407.680242515256	1114.407442791376	1427.398876502519	230.717581941893	1190.743904919277	1359.479210298879	405.604073144579	1089.120345580937	1445.869388670760	563.922735379228	1094.413620933986	1495.485289109935	381.305266448112	1102.042713511009	947.671253877636	548.302280478155	1113.012289728340	960.935529467105	271.714782572915	1159.959595271788	760.535885349396	527.843724771537	1105.187341022441	647.075165641001	602.586267510183	1190.518157675197	598.400096296243	524.666659205615	1217.858751796692	524.767327739885	542.325601903580	1132.901916243829	742.008452262838	303.723009571963	1034.379785434343	635.570118638831	236.733230517549	1105.465647883498	550.236002320520	303.096926250635	1096.375299796915	482.421662738881	311.867707309160	1066.773676817077	413.308992885227	303.293805982163	970.375496605762	304.163839215363	252.653821586569	1013.485880551467	191.100766824903	325.991166944961	1211.425107677615	443.157523137500	558.118296329183	1175.222485929489	325.954783056621	626.826884499286	1255.647893450095	248.329036706977	576.525378458980	1187.573757865660	53.377526358645	556.023927722268	1346.996327977601	139.145799798393	587.126743404317	1277.666808641622	55.054901609498	622.035598087532	1475.539146911457	111.473232346825	599.676258576961	879.672940853531	39.245298538009	371.968860788462	951.132856220756	35.110667432320	289.208918576745	1035.608454861648	95.887363279304	314.418071945765	1163.651760977610	41.370784791743	282.626765596600	1148.911283664730	1089.247938308506	88.783117896225	1364.683971824029	949.375809857982	137.096092378399	951.114362650821	1130.014537974427	681.429500011266	974.825990422262	868.773117429693	694.493492362062	
19	33.144571428571	885.441312745887	1012.775193766550	409.408737654917	1112.965705965058	1426.793872928785	233.162454975173	1189.387098248838	1359.091349649000	408.110373624860	1087.394311999095	1445.229982635420	566.355643824629	1092.634017700449	1494.821218867683	383.737118685352	1101.640362510623	946.158438436217	550.225403914540	1112.943229687442	960.796241092005	273.577056335774	1158.874581467741	758.515476971096	529.564151882629	1102.927506822601	644.838613137842	603.423681016524	1188.645573149360	596.224272146965	525.949269406531	1215.320849769904	522.539099275894	543.446592722431	1131.766685331224	741.303482361013	304.987785191210	1032.515868044111	635.366083091489	237.659815450479	1102.985484105665	549.476762338599	303.806627655399	1093.389010031694	481.651013188116	312.434561509556	1063.311091913819	412.701313379717	303.773997264372	966.077742951528	304.285990819954	252.889115718236	1008.444518640051	190.777123100418	326.092871447873	1208.194292663075	440.645515371846	558.733438323157	1170.685690028913	323.600551482370	626.580126616011	1250.809662086505	245.710314553461	576.627969891309	1181.510506653576	52.095289356581	554.714013282987	1341.182705360413	135.773426813157	587.460122852997	1270.673847558895	53.025823244727	621.833770147033	1469.092150533127	106.803733639774	601.515691771311	873.959547763966	39.338040131517	371.926852476902	945.410427811715	35.131998574762	289.166331821902	1029.918843069243	95.856718403664	314.409234983973	1157.925449540207	41.324398699245	282.637784413257	1147.748474940566	1088.179476975972	91.982285638876	1362.198266288378	946.299166513989	141.152895902473	951.047227622508	1128.699572442273	684.045286075192	978.707741554659	867.947288696980	697.783470092717	
20	33.158714285714	885.419593832037	1011.493249308904	411.449202101315	1111.226815914057	1426.180805491977	235.868408730926	1187.970319220227	1358.729778909572	410.797535607359	1085.670981901572	1444.479467901979	569.086298000793	1090.670856104949	1494.101530699673	386.475047768233	1101.642211593417	944.511405543479	552.151377668575	1113.005337043782	960.695060923516	275.474879729874	1158.740309609936	756.603769662926	531.176295097959	1101.597155997444	642.600558220776	604.119499019661	1187.740448238921	594.168986348466	527.127590952883	1213.674540947950	519.994549355707	544.380534772171	1130.792061882165	740.560764639952	306.100612508301	1030.623100771989	635.162792640534	238.630356193429	1100.503303593287	548.691577126726	304.450714390932	1090.403463365635	480.858819507676	312.981611908383	1059.849392094716	412.075030461238	304.252315445063	961.740616063913	304.408192655237	253.175160083530	1003.400729823158	190.450749704056	326.213857298457	1205.236146228993	437.521578703950	559.011088593909	1165.468611032620	321.110584994853	626.197390499570	1244.278187306896	242.168896896751	576.454270505083	1171.750067109055	50.764168064255	553.757810456385	1332.392380260287	130.977206073187	587.392191955245	1260.128351224814	50.496894726547	621.827404704501	1459.468064240741	99.644903913993	602.883269856780	868.246353755386	39.416714019692	371.894987123374	939.681188476230	35.158834218098	289.128788194589	1024.222906647286	95.834410197705	314.404434468770	1152.186291779334	41.294448186092	282.645293320581	1146.105071711774	1087.089839038536	95.339407351158	1359.099049815843	942.852819423598	144.963946326858	951.321431369063	1127.167675945311	687.079320623293	983.532279921766	867.049937620907	701.502210639191	
21	33.172857142857	885.596635250737	1010.018786151747	413.780395783298	1109.217346247759	1425.577725910433	238.840216782487	1186.515718915860	1358.409707885050	413.670818868331	1083.967152652900	1443.623969576902	572.119924241343	1088.552935752821	1493.343486087720	389.528749240026	1102.052125533206	942.779415657922	554.064412205792	1113.232702263659	960.639611625481	277.400959735863	1159.454269483524	754.723054134043	532.709273852227	1101.025426962530	640.371006313654	604.710614561428	1187.581647023816	592.199251542437	528.177545175568	1212.692739393806	517.213815544278	545.025823240236	1129.967330368179	739.765571141412	307.085958495410	1028.689698158836	634.961528841317	239.664238253300	1097.981923580037	547.880906040832	305.075237796443	1087.378495078869	480.046931591845	313.552051049300	1056.359447308290	411.434552476376	304.763507235511	957.350615585075	304.528502295877	253.535384532621	998.342141779631	190.120297690687	326.373711204827	1202.547188901636	433.946109348316	558.957004508894	1159.897220340178	318.540386389112	625.742400042900	1236.598429554446	237.949567074884	576.018163986498	1159.360891977484	49.335866905781	553.249330147237	1321.515316952261	125.236198398801	586.892662514369	1247.188878851626	47.671818530756	622.009976376388	1447.688716448623	90.852121135797	603.590767843470	862.532813585168	39.464483027789	371.878531114607	933.945494168677	35.184271050896	289.102231392785	1018.517056972067	95.820810603375	314.412628048021	1146.436002372499	41.284526974785	282.650150533156	1143.967334786310	1085.988827646733	98.866532283251	1355.372607351093	939.049772419940	148.434297023647	951.911855938620	1125.448737755646	690.514717400811	989.206688529771	866.125445261208	705.630345626022	
